<svg width="374" height="276" viewBox="0 0 374 276" fill="none" xmlns="http://www.w3.org/2000/svg">
<path d="M256.045 243.202C256.045 312.635 199.838 368.92 130.506 368.92C61.1729 368.92 4.96569 312.635 4.96569 243.202C4.96572 173.769 61.1729 117.484 130.506 117.484C199.838 117.485 256.045 173.77 256.045 243.202Z" stroke="#6246E5"/>
<path d="M284.238 233.238C284.238 310.925 221.349 373.902 143.773 373.902C66.1971 373.902 3.30745 310.925 3.30724 233.238C3.30725 155.55 66.197 92.5727 143.773 92.5727C221.349 92.5729 284.238 155.55 284.238 233.238Z" stroke="#6246E5"/>
<path d="M308.285 224.934C308.285 309.959 239.456 378.885 154.552 378.885C69.6491 378.885 0.820175 309.959 0.81994 224.934C0.819943 139.909 69.6489 70.9831 154.552 70.9831C239.456 70.9832 308.285 139.909 308.285 224.934Z" stroke="#6246E5"/>
<path d="M335.649 216.63C335.649 308.076 261.622 382.207 170.307 382.207C78.9926 382.206 4.96648 308.076 4.96642 216.63C4.96643 125.185 78.9926 51.0544 170.307 51.0542C261.622 51.0542 335.649 125.185 335.649 216.63Z" stroke="#6246E5"/>
<path d="M362.183 208.741C362.183 306.378 283.145 385.528 185.647 385.528C88.1503 385.527 9.11217 306.378 9.11217 208.741C9.11221 111.105 88.1503 31.9556 185.647 31.9553C283.145 31.9553 362.183 111.104 362.183 208.741Z" stroke="#6246E5"/>
<path d="M397.01 195.456C397.01 302.724 310.175 389.68 203.061 389.68C95.9468 389.68 9.11191 302.723 9.11169 195.456C9.11169 88.1884 95.9466 1.23156 203.061 1.23144C310.175 1.23144 397.01 88.1883 397.01 195.456Z" stroke="#6246E5"/>
</svg>
