<svg width="99" height="67" viewBox="0 0 99 67" fill="none" xmlns="http://www.w3.org/2000/svg">
<path d="M-1.45737e-06 38.1024C-6.52486e-07 48.0435 8.05887 56.1024 18 56.1024L41 56.1024C43.7614 56.1024 46 53.8638 46 51.1024L46 20.1024C46 14.5795 41.5228 10.1024 36 10.1024L5 10.1024C2.23857 10.1024 -3.54314e-06 12.3409 -3.31956e-06 15.1024L-1.45737e-06 38.1024Z" fill="#FFF1DA"/>
<path d="M84.1297 24.4255C81.0251 25.5556 77.6045 25.254 74.7451 23.5981C71.7452 21.8611 68.1566 21.5445 64.8991 22.7301L34.1335 33.9279C33.187 34.2724 32.142 34.009 31.4717 33.2566L24.7767 25.7397C23.0882 23.844 20.4559 23.1801 18.0702 24.0484L15.6435 24.9317C13.5168 25.7059 12.4162 28.0658 13.1903 30.1927L16.2358 38.5602C21.1807 52.1461 36.2562 59.1759 49.842 54.2311L50.1403 54.1226L50.3529 54.7066C50.9778 56.4234 52.883 57.3118 54.5997 56.687L61.3946 54.2138C63.091 53.5964 63.9688 51.7138 63.3513 50.0174L63.1253 49.3964L90.1221 39.5704C94.2234 38.0776 96.3453 33.5269 94.8527 29.4257C93.275 25.0908 88.4646 22.8478 84.1297 24.4255ZM18.5304 37.725L15.4849 29.3575C15.1714 28.4961 15.6172 27.54 16.4787 27.2264L18.9054 26.3432C20.3454 25.8191 21.9343 26.2197 22.9535 27.3639L23.1915 27.6311L23.1811 27.6349C20.731 28.5267 19.4634 31.2453 20.3551 33.6952L22.0324 38.3034C22.6849 40.0962 22.5789 42.0401 21.759 43.7356C20.4295 41.9406 19.3325 39.9286 18.5304 37.725ZM61.0568 50.8525C61.2138 51.2837 60.9908 51.7624 60.5596 51.9193L53.7647 54.3924C53.3132 54.5568 52.8121 54.3231 52.6477 53.8715L51.3805 50.3898C51.2161 49.9383 51.4497 49.4372 51.9014 49.2728L58.6962 46.7997C59.1274 46.6427 59.6058 46.8658 59.7628 47.2973L61.0568 50.8525ZM48.4833 47.9181C47.6737 48.2128 46.775 47.7939 46.4803 46.9843C46.1856 46.1747 46.6047 45.2762 47.4145 44.9814L59.3377 40.6417C60.1474 40.347 61.0461 40.7659 61.3408 41.5755C61.6355 42.3851 61.2164 43.2836 60.4066 43.5784L48.4833 47.9181ZM89.2871 37.2757L62.2903 47.1017L62.0573 46.4617C61.9556 46.1823 61.8169 45.9277 61.6531 45.6959C63.4547 44.8028 64.3387 42.673 63.6352 40.7402C62.88 38.6654 60.5775 37.5917 58.5025 38.3469L46.5793 42.6867C44.5044 43.4418 43.4306 45.7444 44.1858 47.8193C44.8902 49.7548 46.9414 50.8185 48.898 50.3397C48.9201 50.6355 48.9793 50.9328 49.0857 51.2249L49.3051 51.8279L49.0068 51.9365C39.7525 55.3048 29.7362 52.5458 23.4231 45.7427C23.4579 45.6999 23.4905 45.6553 23.5192 45.6081C25.0188 43.145 25.3132 40.1782 24.3269 37.4684L22.6497 32.8602C22.2185 31.6755 22.8317 30.361 24.0162 29.9299L24.9393 29.5939L29.6483 34.8812C30.9878 36.3852 33.0762 36.9116 34.9687 36.2229L65.7344 25.0251C68.3107 24.0874 71.1487 24.3376 73.5213 25.7116C77.0079 27.7307 81.179 28.0984 84.965 26.7205C88.0348 25.6031 91.4412 27.1916 92.5585 30.2614C93.5904 33.0969 92.123 36.2435 89.2871 37.2757Z" fill="#1E252B"/>
</svg>
